<?xml version="1.0"?>
<svg xmlns="http://www.w3.org/2000/svg" xmlns:xlink="http://www.w3.org/1999/xlink" xmlns:svgjs="http://svgjs.com/svgjs" version="1.1" width="512" height="512" x="0" y="0" viewBox="0 0 512 512" style="enable-background:new 0 0 512 512" xml:space="preserve" class=""><g><g xmlns="http://www.w3.org/2000/svg" fill="#222221"><path d="m396 220c-19.299 0-35 15.701-35 35v140c0 19.299 15.701 35 35 35s35-15.701 35-35v-140c0-19.299-15.701-35-35-35z" fill="#ffffff" data-original="#222221" style="" class=""/><path d="m226 422c-19.555 0-36.228 12.541-42.42 30h-15.58c-16.641 0-30.749-11.046-35.385-26.189 10.947-5.916 18.385-17.494 18.385-30.811v-140c0-19.33-15.67-35-35-35-19.33 0-35 15.67-35 35v140c0 14.398 8.697 26.761 21.122 32.134 5.728 31.169 33.078 54.866 65.878 54.866h15.58c6.192 17.459 22.865 30 42.42 30 24.813 0 45-20.187 45-45s-20.187-45-45-45z" fill="#ffffff" data-original="#222221" style="" class=""/><path d="m343.678 164.583h-.244c.165-28.704.238-58.228-.119-62.512-.848-10.171-7.005-18.481-15.686-21.17-8.639-2.674-17.778.618-24.453 8.808-6.901 8.468-38.475 65.385-47.987 82.628-2.563 4.646-2.481 10.302.217 14.872s7.61 7.374 12.917 7.374h44.907c-.054 7.174-.108 14.047-.162 20.288-.072 8.284 6.586 15.058 14.87 15.129h.132c8.223 0 14.926-6.631 14.996-14.871.043-4.938.103-12.135.167-20.546h.445c8.284 0 15-6.716 15-15s-6.716-15-15-15zm-30.251 0h-19.605c7.139-12.749 14.076-24.973 19.747-34.764-.019 10.062-.071 22.198-.142 34.764z" fill="#ffffff" data-original="#222221" style="" class=""/><path d="m250.37 133.057c.304-1.995.847-4.815.97-7.941 0-24.877-20.239-45.116-45.117-45.116-21.511 0-40.129 15.303-44.27 36.388-1.597 8.129 3.699 16.013 11.828 17.609 8.129 1.597 16.013-3.699 17.609-11.828 1.385-7.051 7.623-12.169 14.832-12.169 8.069 0 14.683 6.354 15.097 14.322l-.334 2.616c-1.423 5.536-4.879 12.322-10.029 19.681-18.622 26.607-29.734 41.156-35.703 48.973-7.496 9.814-11.258 14.74-8.731 22.953 1.495 4.863 5.172 8.591 10.087 10.23 1.977.659 3.759 1.253 26.945 1.253 9.004 0 21.237-.09 37.963-.3 8.283-.104 14.914-6.904 14.811-15.188-.104-8.22-6.798-14.812-14.995-14.812-.063 0-.129 0-.192.001-10.642.134-21.887.227-31.618.259 6.366-8.563 14.878-20.258 26.014-36.167 7.642-10.924 12.633-21.274 14.833-30.764z" fill="#ffffff" data-original="#222221" style="" class=""/><path d="m491 257.604v-22.604c0-62.771-24.444-121.784-68.83-166.169-44.386-44.387-103.399-68.831-166.17-68.831s-121.784 24.444-166.17 68.83c-44.386 44.385-68.83 103.399-68.83 166.17v22.605c-12.051 8.082-20 21.826-20 37.395v60c0 24.813 20.187 45 45 45h5v-165c0-113.037 91.963-205 205-205s205 91.962 205 205v165h5c24.813 0 45-20.187 45-45v-60c0-15.569-7.949-29.313-20-37.396z" fill="#ffffff" data-original="#222221" style="" class=""/></g></g></svg>
