<?xml version="1.0"?>
<svg xmlns="http://www.w3.org/2000/svg" xmlns:xlink="http://www.w3.org/1999/xlink" xmlns:svgjs="http://svgjs.com/svgjs" version="1.1" width="512" height="512" x="0" y="0" viewBox="0 0 195.084 195.084" style="enable-background:new 0 0 512 512" xml:space="preserve" class=""><g>
<g xmlns="http://www.w3.org/2000/svg">
	<path d="M171.765,61.547c-0.128-0.068-0.255-0.119-0.38-0.159c-1.139-5.731-3.687-10.695-8.835-13.197   c-5.714-2.778-13.07-1.55-19.098-0.91c-4.674,0.497-9.386,0.748-14.108,0.877c3.604-5.059-1.978-17.076-5.107-20.866   c-7.04-8.523-20.837-8.125-30.881-7.734c-14.657,0.569-38.895,8.271-33.85,26.724c-6.002-0.197-12.007-0.302-18.019-0.214   c-5.534,0.081-12.88-0.515-17.355,3.43c-2.797,2.465-3.232,7.692-3.193,12.281C5.055,73.11-0.352,96.039,0.018,114.416   c0.205,10.163,2.701,20.308,7.639,29.204c3.441,6.199,10.287,14.283,17.842,15.807c0.277,2.572,0.877,5.051,2.019,7.317   c4.186,8.303,13.49,9.063,21.891,8.935c6.323-0.097,12.601-1.066,18.928-1.184c7.653-0.143,15.363,0.429,23.026,0.447   c15.694,0.037,31.332-1.207,47.017-1.428c7.174-0.102,17.342,1.426,23.251-3.849c4.056-3.621,5.911-8.78,6.799-14.21   c16.886-5.516,23.968-26.619,26.111-42.504C197.211,93.157,190.1,71.346,171.765,61.547z M91.855,24.427   c8.358-0.694,17.979-0.546,25.566,3.274c7.793,3.924,6.201,13.746,8.093,20.437c0.012,0.038,0.032,0.066,0.044,0.101   c-1.304,0.019-2.606,0.014-3.91,0.021c-0.002-0.028,0.004-0.054,0.002-0.083c-2.441-28.575-60.004-25.2-52.665-1.506   c-2.2-0.1-4.4-0.195-6.601-0.278C62.4,30.607,77.956,25.581,91.855,24.427z M116.86,48.274c-2.308-0.007-4.611-0.021-6.907-0.034   c-12.739-0.073-25.453-0.831-38.17-1.438c0.021-0.08,0.056-0.149,0.066-0.236C74.241,24.779,112.957,28.76,116.86,48.274z    M25.3,155.75c-2.299-1.636-4.787-3.065-6.915-4.952c-3.339-2.958-5.901-6.678-8.06-10.547c-4.636-8.307-6.232-18.148-6.442-27.535   c-0.381-16.972,5.038-34.31,17.196-46.225c0.016,0.454,0.03,0.888,0.036,1.275c0.066,4.685-0.167,9.25-0.438,13.832   c-7.943,7.694-9.258,23.329-9.006,33.6c0.269,10.955,4.08,24.058,14.449,29.382C25.75,148.179,25.287,152.008,25.3,155.75z    M26.438,140.993c-0.009,0.136-0.027,0.281-0.037,0.419c-7.912-7.202-10.673-17.347-10.897-28.06   c-0.172-8.222,1.849-15.016,4.644-21.943c-0.117,5.044,1.101,8.633,5.674,11.285c0.501,0.291,1.032,0.55,1.559,0.814   C26.758,115.996,27.302,128.539,26.438,140.993z M159.209,165.3c-5.218,5.896-19.815,3.333-26.627,3.506   c-12.756,0.325-25.463,1.264-38.23,1.364c-11.743,0.093-23.498-0.899-35.213,0.05c-9.558,0.773-24.858,3.578-28.128-8.361   c-2.08-7.596,0.13-16.436,0.505-24.145c0.528-10.835,0.035-21.804-0.582-32.646c4.87,1.846,10.294,2.977,15.056,4.178   c8.762,2.208,17.668,3.857,26.68,2.82c0.142,0.492,0.479,0.91,1.076,1.041c3.279,0.725,6.585,1.115,9.904,1.328   c-2.015,7.088-0.243,20.092,8.006,20.764c5.518,0.451,8.955-3.375,10.636-8.189c0.88-2.517,2.245-9.053,0.735-12.554   c3.136-0.013,6.75,0.171,9.515-1.153c0.247,0.071,0.516,0.116,0.824,0.102c12.41-0.61,24.757,1.386,37.083-0.998   c5.166-1,8.999-3.016,11.897-5.784c0.437,8.299,1.454,16.583,1.96,24.872C164.926,141.629,166.441,157.128,159.209,165.3z    M75.981,94.352c-0.144-5.334-1.094-10.794,5.767-11.605c8.504-1.005,17.896-1.155,26.323,0.441   c6.631,1.256,4.489,18.516,3.639,23.937c-0.675,4.304-13.989,2.668-17.127,2.769c-6.034,0.196-12.003,0.403-18.015,0.082   c0.005-0.226-0.011-0.459-0.077-0.711C75.226,104.483,76.113,99.244,75.981,94.352z M98.484,123.284   c-0.586,3.428-2.445,8.178-6.809,7.326c-3.04-0.594-3.769-5.674-4.238-8.073c-0.515-2.638-0.416-5.304-0.591-7.955   c3.847,0.118,7.708,0.047,11.565-0.04c-0.058,0.885,0.263,1.785,0.363,2.744C98.98,119.274,98.82,121.321,98.484,123.284z    M143.099,108.521c-8.857,0.834-17.755-0.24-26.629-0.08c1.395-4.502,0.562-10.668,0.646-15.043   c0.085-4.481,0.308-11.233-4.173-13.791c-4.134-2.36-10.426-2.152-14.993-2.35c-6.346-0.275-12.794-0.073-19.073,0.923   c-5.089,0.807-7.786,4.084-8.148,9.037c-0.265,3.625,0.561,7.395,0.507,11.051c-0.052,3.473-0.301,6.973,0.261,10.396   c-13.303-1.413-26.13-4.172-38.872-8.324c-7.506-2.445-7.964-6.437-7.405-13.657c0.495-6.407,0.919-12.466,0.736-18.917   c-0.142-5.003-1.502-14.686,4.747-16.153c8.019-1.882,17.572-0.688,25.732-0.449c17.856,0.522,35.645,2.052,53.517,2.305   c14.423,0.204,28.612-1.19,42.969-1.629c9.499-0.291,12.624,5.165,13.528,13.888c0.798,7.696,0.178,15.664-0.966,23.287   C163.506,102.192,155.895,107.313,143.099,108.521z M170.871,85.668c0.083-0.606,0.169-1.246,0.255-1.903   c5.653,7.624,8.095,16.38,8.471,26.106c0.22,5.661-0.612,11.267-2.618,16.562c-1.646,4.348-4.439,6.803-7.681,9.395   c-0.296-11.635-1.911-23.303-2.717-34.881C168.863,96.626,170.087,91.401,170.871,85.668z M168.896,151.765   c0.307-3.293,0.367-6.584,0.435-9.596c0.023-1.029,0.008-2.059,0.005-3.089c10.67-1.675,14.109-17.142,14.618-25.892   c0.624-10.729-2.298-28.057-12.24-34.509c0.383-3.903,0.611-8.193,0.319-12.342C198.568,85.158,196.556,134.408,168.896,151.765z" fill="#ffffff" data-original="#000000" style="" class=""/>
</g>
<g xmlns="http://www.w3.org/2000/svg">
</g>
<g xmlns="http://www.w3.org/2000/svg">
</g>
<g xmlns="http://www.w3.org/2000/svg">
</g>
<g xmlns="http://www.w3.org/2000/svg">
</g>
<g xmlns="http://www.w3.org/2000/svg">
</g>
<g xmlns="http://www.w3.org/2000/svg">
</g>
<g xmlns="http://www.w3.org/2000/svg">
</g>
<g xmlns="http://www.w3.org/2000/svg">
</g>
<g xmlns="http://www.w3.org/2000/svg">
</g>
<g xmlns="http://www.w3.org/2000/svg">
</g>
<g xmlns="http://www.w3.org/2000/svg">
</g>
<g xmlns="http://www.w3.org/2000/svg">
</g>
<g xmlns="http://www.w3.org/2000/svg">
</g>
<g xmlns="http://www.w3.org/2000/svg">
</g>
<g xmlns="http://www.w3.org/2000/svg">
</g>
</g></svg>
