<svg id="Capa_1" enable-background="new 0 0 512 512" height="512" viewBox="0 0 512 512" width="512" xmlns="http://www.w3.org/2000/svg"><g><path d="m503.709 467.582c-18.486-9.243-33.135-24.243-42.1-42.876 32.168-25.049 50.391-58.638 50.391-93.706 0-74.443-81.742-135-181-135l-154.57 65.537c-16.641 20.859-25.43 44.883-25.43 69.463 0 74.443 80.742 135 180 135 15.264 0 30.41-1.436 45.176-4.277 24.785 22.163 57.367 34.277 90.824 34.277h30c6.943 0 13.008-4.79 14.59-11.558 1.611-6.767-1.67-13.754-7.881-16.86z" fill="#91f2e2"/><path d="m467 496h30c6.943 0 13.008-4.79 14.59-11.558 1.611-6.768-1.67-13.755-7.881-16.86-18.486-9.243-33.135-24.243-42.1-42.876 32.168-25.049 50.391-58.638 50.391-93.706 0-74.443-81.742-135-181-135v270c15.264 0 30.41-1.436 45.176-4.277 24.785 22.163 57.367 34.277 90.824 34.277z" fill="#73d3e6"/><path d="m181 16c-99.258 0-181 60.557-181 135 0 35.068 18.223 68.657 50.391 93.706-8.965 18.633-23.613 33.633-42.1 42.876-6.211 3.105-9.492 10.093-7.881 16.86 1.582 6.768 7.647 11.558 14.59 11.558h30c33.457 0 66.039-12.114 90.824-34.277 14.766 2.841 29.912 4.277 45.176 4.277 99.258 0 180-60.557 180-135s-80.742-135-180-135z" fill="#ff8c9f"/><path d="m361 151c0-74.443-80.742-135-180-135v270c99.258 0 180-60.557 180-135z" fill="#f255a3"/><g><circle cx="271" cy="331" fill="#f3f5f9" r="15"/></g><g><circle cx="331" cy="331" fill="#f3f5f9" r="15"/></g><path d="m211 91.015c-12.92 0-22.793 4.863-30 11.265-7.178-6.401-17.08-11.265-30-11.265-25.225 0-45 18.955-45 43.169 0 25.503 21.211 40.986 50.566 62.432l15.439 11.396c2.666 2.007 5.83 3.003 8.994 3.003s6.328-.996 8.994-3.003l15.38-11.323c29.387-21.475 50.627-36.988 50.627-62.505 0-24.214-19.775-43.169-45-43.169z" fill="#f3f5f9"/><path d="m205.374 196.688c29.386-21.474 50.626-36.987 50.626-62.504 0-24.214-19.775-43.169-45-43.169-12.92 0-22.793 4.863-30 11.265v108.735c3.164 0 6.328-.996 8.994-3.003z" fill="#e1e6f0"/><path d="m346 331c0 8.399-6.599 15-15 15v-30c8.401 0 15 6.599 15 15z" fill="#e1e6f0"/><g><circle cx="391" cy="331" fill="#e1e6f0" r="15"/></g></g></svg>