<?xml version="1.0"?>
<svg xmlns="http://www.w3.org/2000/svg" xmlns:xlink="http://www.w3.org/1999/xlink" xmlns:svgjs="http://svgjs.com/svgjs" version="1.1" width="512" height="512" x="0" y="0" viewBox="0 0 442 442" style="enable-background:new 0 0 512 512" xml:space="preserve" class=""><g>
<g xmlns="http://www.w3.org/2000/svg">
	<path d="M363.617,368.746h10c5.522,0,10-4.478,10-10V10c0-5.522-4.478-10-10-10H83.64C70.894,0,58.383,12.406,58.383,25.046   v343.977v56.584c0,8.16,6.462,16.394,20.897,16.394h294.337c5.522,0,10-4.478,10-10s-4.478-10-10-10h-10V368.746z M139.271,348.746   V20h153.062l71.284,75.015v181.986l-71.157,71.745H139.271z M363.617,305.402v43.344h-42.989L363.617,305.402z M363.617,65.981   L319.924,20h43.694V65.981z M83.64,20h35.632v328.746H79.28c-0.299,0-0.599,0.01-0.897,0.026V25.046   C78.383,23.349,81.871,20,83.64,20z M78.383,370.693c9.863,4.006,16.627,13.725,16.627,24.68c0,11.081-6.735,20.696-16.627,24.673   V370.693z M106.708,422c3.429-4.944,5.913-10.575,7.226-16.627h30.141c5.522,0,10-4.478,10-10s-4.478-10-10-10h-30.159   c-1.334-6.031-3.851-11.667-7.31-16.627h237.01v16.627H180.56c-5.522,0-10,4.478-10,10s4.478,10,10,10h163.058V422H106.708z" fill="#ffffff" data-original="#000000" style="" class=""/>
	<path d="M295.944,169.19h-89c-5.522,0-10,4.478-10,10s4.478,10,10,10h89c5.522,0,10-4.478,10-10S301.467,169.19,295.944,169.19z" fill="#ffffff" data-original="#000000" style="" class=""/>
	<path d="M311.444,129.19h-120c-5.522,0-10,4.478-10,10s4.478,10,10,10h120c5.522,0,10-4.478,10-10S316.967,129.19,311.444,129.19z" fill="#ffffff" data-original="#000000" style="" class=""/>
</g>
<g xmlns="http://www.w3.org/2000/svg">
</g>
<g xmlns="http://www.w3.org/2000/svg">
</g>
<g xmlns="http://www.w3.org/2000/svg">
</g>
<g xmlns="http://www.w3.org/2000/svg">
</g>
<g xmlns="http://www.w3.org/2000/svg">
</g>
<g xmlns="http://www.w3.org/2000/svg">
</g>
<g xmlns="http://www.w3.org/2000/svg">
</g>
<g xmlns="http://www.w3.org/2000/svg">
</g>
<g xmlns="http://www.w3.org/2000/svg">
</g>
<g xmlns="http://www.w3.org/2000/svg">
</g>
<g xmlns="http://www.w3.org/2000/svg">
</g>
<g xmlns="http://www.w3.org/2000/svg">
</g>
<g xmlns="http://www.w3.org/2000/svg">
</g>
<g xmlns="http://www.w3.org/2000/svg">
</g>
<g xmlns="http://www.w3.org/2000/svg">
</g>
</g></svg>
