<?xml version="1.0"?>
<svg xmlns="http://www.w3.org/2000/svg" xmlns:xlink="http://www.w3.org/1999/xlink" xmlns:svgjs="http://svgjs.com/svgjs" version="1.1" width="512" height="512" x="0" y="0" viewBox="0 0 512 512" style="enable-background:new 0 0 512 512" xml:space="preserve"><g><g xmlns="http://www.w3.org/2000/svg"><path d="m490.591 347.035c11.793-29.75 17.772-61.141 17.772-93.402 0-51.48-15.361-101.074-44.424-143.419-3.125-4.556-9.351-5.711-13.904-2.587-4.554 3.125-5.711 9.351-2.586 13.903 26.766 39 40.914 84.68 40.914 132.103 0 26.468-4.38 52.29-13.002 76.975-14.28-12.412-31.988-20.976-51.494-24.069-6.026-28.643-23.846-53.934-48.685-69.446 10.742-12.824 17.224-29.329 17.224-47.323 0-40.729-33.141-73.863-73.876-73.863-27.229 0-51.045 14.827-63.85 36.822-12.809-21.995-36.635-36.822-63.874-36.822-40.735 0-73.876 33.135-73.876 73.863 0 17.997 6.484 34.503 17.229 47.328-31.347 19.492-50.967 53.983-50.967 91.339v19.275c0 5.522 4.477 10 10 10h72.758v10.977c0 5.522 4.477 10 10 10h132.726c-2.874 9.481-4.426 19.532-4.426 29.939 0 25.372 9.193 48.633 24.415 66.641-23.787 7.957-48.604 11.997-73.982 11.997-128.854.001-233.683-104.807-233.683-233.633 0-128.825 104.829-233.633 233.682-233.633 47.441 0 93.122 14.136 132.103 40.878 4.555 3.125 10.779 1.966 13.903-2.589 3.125-4.555 1.965-10.779-2.589-13.903-42.327-29.037-91.92-44.386-143.417-44.386-67.762 0-131.467 26.382-179.38 74.285-47.915 47.904-74.302 111.598-74.302 179.348s26.387 131.443 74.301 179.349c47.913 47.903 111.618 74.285 179.38 74.285 31.074 0 61.385-5.565 90.192-16.545 17.409 13.338 39.162 21.278 62.737 21.278 57.009 0 103.39-46.372 103.39-103.371 0-23.06-7.594-44.379-20.409-61.594zm-87.578-41.671c-23.874 1.051-45.669 10.235-62.675 24.849-5.655-20.873-18.871-39.22-37.118-51.221 3.684-4.729 6.692-10.004 8.881-15.686 2.134.183 4.278.299 6.43.299 15.17 0 29.283-4.599 41.027-12.468 21.27 11.369 37.075 31.221 43.455 54.227zm-189.874-64.09c0-22.886 18.636-41.505 41.543-41.505 22.891 0 41.515 18.619 41.515 41.505s-18.624 41.505-41.515 41.505c-22.907 0-41.543-18.619-41.543-41.505zm105.39-105.368c29.708 0 53.876 24.163 53.876 53.863 0 29.685-24.168 53.835-53.876 53.835-.799 0-1.595-.028-2.391-.062.028-.754.058-1.507.058-2.268 0-30.238-21.944-55.431-50.742-60.541 4.312-25.411 26.463-44.827 53.075-44.827zm-127.723 0c26.626 0 48.789 19.416 53.103 44.826-28.813 5.108-50.77 30.302-50.77 60.542 0 .761.03 1.514.058 2.268-.794.034-1.59.062-2.391.062-29.708 0-53.876-24.15-53.876-53.835 0-29.7 24.168-53.863 53.876-53.863zm-87.615 192.532c0-32.372 18.119-62.112 46.605-77.289 11.741 7.861 25.847 12.456 41.01 12.456 2.158 0 4.302-.115 6.432-.297 2.189 5.682 5.198 10.956 8.883 15.683-20.455 13.441-34.52 34.764-38.796 58.722h-64.133v-9.275zm82.758 30.251v-5.534c0-25.015 13.79-48.039 35.557-60.119 9.581 6.155 20.964 9.743 33.176 9.743 12.205 0 23.581-3.587 33.157-9.74 20.484 11.364 33.975 32.564 35.418 55.915-2.214 3.121-4.255 6.373-6.119 9.736h-131.189zm221.661 133.311c-45.966 0-83.361-37.4-83.361-83.371 0-45.972 37.396-83.372 83.361-83.372 2.262 0 4.496.116 6.713.294.041.004.082.006.123.009 42.793 3.492 76.554 39.401 76.554 83.069 0 45.971-37.409 83.371-83.39 83.371z" fill="#ffffff" data-original="#000000" style=""/><path d="m407.625 370.604c-14.103-11.061-34.091-10.506-45.941 1.774-14.334 14.866-14.338 39.082-.009 53.982.087.09.175.179.265.266l38.728 37.359c1.938 1.869 4.44 2.803 6.943 2.803 2.502 0 5.006-.935 6.943-2.803l38.729-37.359c.087-.084.172-.169.256-.256 14.372-14.905 14.368-39.131-.002-53.994-11.842-12.272-31.817-12.824-45.912-1.772zm31.625 41.767-31.641 30.522-31.635-30.518c-6.735-7.137-6.701-19.057.104-26.113 5.632-5.837 14.97-3.976 20.389 1.093l.355.334c2.745 2.574 5.856 5.491 10.802 5.491s8.057-2.917 10.802-5.491l.354-.332c5.414-5.064 14.739-6.921 20.369-1.088 6.821 7.056 6.853 18.971.101 26.102z" fill="#ffffff" data-original="#000000" style=""/><path d="m419.903 88.418c1.95 1.949 4.499 2.922 7.05 2.922 2.56 0 5.122-.98 7.078-2.937 3.905-3.905 3.891-10.251-.014-14.156-3.905-3.904-10.237-3.904-14.143 0-3.905 3.905-3.905 10.237 0 14.143z" fill="#ffffff" data-original="#000000" style=""/></g></g></svg>
