<svg height="512" viewBox="0 0 60 60" width="512" xmlns="http://www.w3.org/2000/svg"><g id="Page-1" fill="none" fill-rule="evenodd"><g id="029---Image-Filters" fill="rgb(0,0,0)" fill-rule="nonzero"><path id="Shape" d="m30 0c-16.5685425 0-30 13.4314575-30 30s13.4314575 30 30 30 30-13.4314575 30-30c-.018737-16.5607751-13.4392249-29.98126296-30-30zm20.543 11h-20.543c-3.7372379-.0031601-7.3914066 1.102487-10.5 3.177l6.892-11.937c8.9967151-1.18889536 18.0085283 2.07985059 24.151 8.76zm-3.543 19c0 9.3888407-7.6111593 17-17 17s-17-7.6111593-17-17 7.6111593-17 17-17c9.3845001.010471 16.989529 7.6154999 17 17zm-23.18-27.3-10.276 17.8.02.011c-1.6785429 2.8806964-2.56327 6.1549458-2.564 9.489 0 .405.036.8.061 1.2l-6.907-11.961c3.50310963-8.3629365 10.8262673-14.52167263 19.666-16.539zm-20.561 18.989 10.041 17.388.24.42.02-.012c1.874283 3.2335121 4.6557352 5.8463388 8 7.515h-13.788c-5.52357832-7.2043079-7.2062679-16.6416126-4.513-25.311zm6.198 27.311h20.543c3.7373678.0030443 7.3915963-1.1029689 10.5-3.178l-6.892 11.938c-8.9967151 1.1888954-18.0085283-2.0798506-24.151-8.76zm26.723 8.3 10.088-17.472.189-.33-.019-.012c1.6770208-2.8801421 2.5610131-6.1531909 2.562-9.486 0-.405-.036-.8-.061-1.2l6.907 11.962c-3.5033677 8.3625515-10.8264821 14.5208789-19.666 16.538zm20.561-18.989-10.285-17.811-.02.011c-1.8748026-3.2321055-4.6562201-5.8435088-8-7.511h13.792c5.5235783 7.2043079 7.2062679 16.6416126 4.513 25.311z"/><path id="Shape" d="m22 30.142v-9.142c0-.5522847-.4477153-1-1-1s-1 .4477153-1 1v9.142c-1.7642024.4490235-2.9990647 2.0375517-2.9990647 3.858s1.2348623 3.4089765 2.9990647 3.858v1.142c0 .5522847.4477153 1 1 1s1-.4477153 1-1v-1.142c1.7642024-.4490235 2.9990647-2.0375517 2.9990647-3.858s-1.2348623-3.4089765-2.9990647-3.858zm-1 5.858c-1.1045695 0-2-.8954305-2-2s.8954305-2 2-2 2 .8954305 2 2-.8954305 2-2 2z"/><path id="Shape" d="m40 30.142v-9.142c0-.5522847-.4477153-1-1-1s-1 .4477153-1 1v9.142c-1.7642024.4490235-2.9990647 2.0375517-2.9990647 3.858s1.2348623 3.4089765 2.9990647 3.858v1.142c0 .5522847.4477153 1 1 1s1-.4477153 1-1v-1.142c1.7642024-.4490235 2.9990647-2.0375517 2.9990647-3.858s-1.2348623-3.4089765-2.9990647-3.858zm-1 5.858c-1.1045695 0-2-.8954305-2-2s.8954305-2 2-2 2 .8954305 2 2-.8954305 2-2 2z"/><path id="Shape" d="m31 22.142v-1.142c0-.5522847-.4477153-1-1-1s-1 .4477153-1 1v1.142c-1.7642024.4490235-2.9990647 2.0375517-2.9990647 3.858s1.2348623 3.4089765 2.9990647 3.858v9.142c0 .5522847.4477153 1 1 1s1-.4477153 1-1v-9.142c1.7642024-.4490235 2.9990647-2.0375517 2.9990647-3.858s-1.2348623-3.4089765-2.9990647-3.858zm-1 5.858c-1.1045695 0-2-.8954305-2-2s.8954305-2 2-2 2 .8954305 2 2-.8954305 2-2 2z"/></g></g></svg>