<?xml version="1.0"?>
<svg xmlns="http://www.w3.org/2000/svg" xmlns:xlink="http://www.w3.org/1999/xlink" xmlns:svgjs="http://svgjs.com/svgjs" version="1.1" width="512" height="512" x="0" y="0" viewBox="0 0 512 512" style="enable-background:new 0 0 512 512" xml:space="preserve" class=""><g><g xmlns="http://www.w3.org/2000/svg"><path d="m421.665 41.411h-83.614v-9.064c0-4.142-3.357-7.5-7.5-7.5h-37.095c-6.256-14.882-20.914-24.847-37.455-24.847s-31.199 9.965-37.455 24.847h-37.094c-4.143 0-7.5 3.358-7.5 7.5v9.064h-83.617c-13.271 0-24.067 10.796-24.067 24.067v42.988c0 4.142 3.357 7.5 7.5 7.5s7.5-3.358 7.5-7.5v-42.987c0-5 4.067-9.067 9.067-9.067h83.617v18.136h-67.052c-4.143 0-7.5 3.358-7.5 7.5v389.32c0 4.142 3.357 7.5 7.5 7.5h298.198c4.143 0 7.5-3.358 7.5-7.5v-389.321c0-4.142-3.357-7.5-7.5-7.5h-67.048v-18.136h83.614c5 0 9.067 4.067 9.067 9.067v422.454c0 5-4.067 9.067-9.067 9.067h-331.329c-5 0-9.067-4.067-9.067-9.067v-349.465c0-4.142-3.357-7.5-7.5-7.5s-7.5 3.358-7.5 7.5v349.466c0 13.271 10.797 24.067 24.067 24.067h331.33c13.27 0 24.067-10.796 24.067-24.067v-422.454c0-13.271-10.797-24.068-24.067-24.068zm-232.713-1.564h34.961c3.422 0 6.41-2.316 7.263-5.63 2.913-11.315 13.122-19.217 24.825-19.217s21.912 7.902 24.825 19.217c.853 3.313 3.841 5.63 7.263 5.63h34.962v51.269h-59.55v-9.066c0-4.142-3.357-7.5-7.5-7.5s-7.5 3.358-7.5 7.5v9.066h-59.549zm208.647 49.7v374.32h-283.199v-374.32h59.552v9.069c0 4.142 3.357 7.5 7.5 7.5h149.099c4.143 0 7.5-3.358 7.5-7.5v-9.069z" fill="#ffffff" data-original="#000000" style="" class=""/><path d="m256 314.767h-33.133c-4.143 0-7.5 3.358-7.5 7.5s3.357 7.5 7.5 7.5h33.133c4.143 0 7.5-3.358 7.5-7.5s-3.357-7.5-7.5-7.5z" fill="#ffffff" data-original="#000000" style="" class=""/><path d="m289.133 347.897h-66.267c-4.143 0-7.5 3.358-7.5 7.5s3.357 7.5 7.5 7.5h66.267c4.143 0 7.5-3.358 7.5-7.5s-3.358-7.5-7.5-7.5z" fill="#ffffff" data-original="#000000" style="" class=""/><path d="m306.482 355.399c0 4.142 3.357 7.5 7.5 7.5h24.852c4.143 0 7.5-3.358 7.5-7.5s-3.357-7.5-7.5-7.5h-24.852c-4.142 0-7.5 3.358-7.5 7.5z" fill="#ffffff" data-original="#000000" style="" class=""/><path d="m192.196 226.022 58.501 58.502c1.407 1.407 3.314 2.197 5.304 2.197 1.989 0 3.896-.79 5.304-2.197l58.571-58.572c19.071-19.073 19.071-50.105 0-69.178-9.24-9.239-21.524-14.328-34.59-14.328-10.703 0-20.88 3.414-29.29 9.727-19.143-14.325-46.479-12.793-63.872 4.599-19.071 19.072-19.071 50.106 0 69.178.024.025.048.049.072.072zm10.534-58.642c13.224-13.224 34.741-13.224 47.965-.001.232.232.48.449.74.648 1.303 1 2.905 1.55 4.566 1.55 1.989 0 3.896-.79 5.304-2.197 6.405-6.406 14.923-9.934 23.981-9.934 9.06 0 17.576 3.528 23.982 9.934 13.225 13.224 13.224 34.741 0 47.965l-53.268 53.269-53.268-53.269c-.021-.021-.044-.043-.065-.064-13.16-13.229-13.139-34.698.063-47.901z" fill="#ffffff" data-original="#000000" style="" class=""/><path d="m189.733 314.767h-33.133c-4.143 0-7.5 3.358-7.5 7.5v33.133c0 4.142 3.357 7.5 7.5 7.5h33.134c4.143 0 7.5-3.358 7.5-7.5v-33.133c-.001-4.142-3.358-7.5-7.501-7.5zm-7.5 33.133h-18.133v-18.133h18.134v18.133z" fill="#ffffff" data-original="#000000" style="" class=""/><path d="m222.867 396.034h33.133c4.143 0 7.5-3.358 7.5-7.5s-3.357-7.5-7.5-7.5h-33.133c-4.143 0-7.5 3.358-7.5 7.5s3.358 7.5 7.5 7.5z" fill="#ffffff" data-original="#000000" style="" class=""/><path d="m289.133 414.164h-66.267c-4.143 0-7.5 3.358-7.5 7.5s3.357 7.5 7.5 7.5h66.267c4.143 0 7.5-3.358 7.5-7.5s-3.358-7.5-7.5-7.5z" fill="#ffffff" data-original="#000000" style="" class=""/><path d="m338.834 414.166h-24.852c-4.143 0-7.5 3.358-7.5 7.5s3.357 7.5 7.5 7.5h24.852c4.143 0 7.5-3.358 7.5-7.5s-3.357-7.5-7.5-7.5z" fill="#ffffff" data-original="#000000" style="" class=""/><path d="m189.733 381.033h-33.133c-4.143 0-7.5 3.358-7.5 7.5v33.133c0 4.142 3.357 7.5 7.5 7.5h33.134c4.143 0 7.5-3.358 7.5-7.5v-33.133c-.001-4.142-3.358-7.5-7.501-7.5zm-7.5 33.134h-18.133v-18.133h18.134v18.133z" fill="#ffffff" data-original="#000000" style="" class=""/></g></g></svg>
