<?xml version="1.0"?>
<svg xmlns="http://www.w3.org/2000/svg" xmlns:xlink="http://www.w3.org/1999/xlink" xmlns:svgjs="http://svgjs.com/svgjs" version="1.1" width="512" height="512" x="0" y="0" viewBox="0 0 128 128" style="enable-background:new 0 0 512 512" xml:space="preserve" class=""><g transform="matrix(1.5000000000000002,0,0,1.5000000000000002,-32.00091171264643,-31.991089820861816)"><title xmlns="http://www.w3.org/2000/svg">WEDDING RING</title><path xmlns="http://www.w3.org/2000/svg" d="M74.893,46.979A1.25,1.25,0,0,0,73.8,49.227a22.443,22.443,0,1,1-14.5-1.736l1.882,1.882a20.135,20.135,0,0,0-7.867,2.856,1.25,1.25,0,0,0,1.323,2.121,17.7,17.7,0,1,1-6.525,7.2,1.25,1.25,0,0,0-2.241-1.109,20.02,20.02,0,0,0-2.087,8.955,20.218,20.218,0,1,0,23.018-20l5.555-5.555A5.946,5.946,0,0,0,64,35.377a5.946,5.946,0,0,0-8.356,8.462l1.575,1.575a24.915,24.915,0,1,0,17.673,1.565ZM57.413,37.2a3.445,3.445,0,0,1,4.873,0l.83.829a1.25,1.25,0,0,0,1.768,0l.83-.829a3.528,3.528,0,0,1,4.874,0,3.445,3.445,0,0,1,0,4.873L64,48.659l-6.587-6.588a3.445,3.445,0,0,1,0-4.873Z" fill="#ffffff" data-original="#000000" style="" class=""/><path xmlns="http://www.w3.org/2000/svg" d="M50.651,57.745l.241-.272a1.25,1.25,0,1,0-1.846-1.685l-.277.31a1.25,1.25,0,0,0,1.882,1.647Z" fill="#ffffff" data-original="#000000" style="" class=""/></g></svg>
